<svg xmlns="http://www.w3.org/2000/svg" width="1484.052" height="287.999"><path d="M124.155 367.444c0 2.59 2.143 4.71 4.764 4.71h131.87c2.622 0 4.766-2.12 4.766-4.71v-7.52c0-2.59-2.144-4.71-4.766-4.71H128.92c-2.62 0-4.764 2.12-4.764 4.71z" style="fill:#333" transform="translate(-87.073 -84.154)"/><path d="M87.555 219.054c1.72-21.61 9-40.442 15.8-53.95 6.82-13.51 13.2-21.712 13.4-21.976 2.39-3.06 6.833-3.63 9.93-1.27a6.94 6.94 0 0 1 1.29 9.81v.001c-.162.204-5.354 6.967-11.086 18l20.254 1.564 2.894-40.03c.186-2.584 2.482-4.698 5.103-4.698h99.42c2.622 0 4.92 2.114 5.105 4.698l6.612 91.501 15.962-36.81c1.032-2.383 4.021-4.33 6.641-4.33h16.182c2.62 0 4.064 2.002 3.212 4.452l-36.985 106.02 3.92 54.245c.187 2.581-1.806 4.696-4.428 4.696h-131.87c-2.62 0-4.612-2.115-4.424-4.696l5.223-72.318-21.832-1.688q.587 1.732 1.18 3.316c1.944 5.216 3.88 9.231 5.3 11.9a64 64 0 0 0 1.68 2.97c.193.318.341.55.43.69l.091.141v.001c2.176 3.213 1.303 7.56-1.948 9.707a7.1 7.1 0 0 1-3.929 1.183 7.1 7.1 0 0 1-5.893-3.107c-.463-.706-17.689-26.34-17.716-68.013-.002-3.867.151-7.872.476-12.006zm16.927 41.162c.05.004.096 0 .145.004l25.938 2.005 5.73-79.256-24.747-1.912c-4.649 11.076-8.734 24.541-9.875 39.088a139 139 0 0 0-.433 10.917c0 11.055 1.346 20.844 3.242 29.154" style="fill:#660080" transform="translate(-87.073 -84.154)"/><path d="M140.715 117.573s.578-7.312.578-8.008c0-6.103 18.136-11.199 42.318-12.425l-2.445-8.459c-.73-2.489.82-4.527 3.44-4.527h20.465c2.621 0 4.176 2.038 3.455 4.528l-2.445 8.46c24.183 1.225 42.32 6.321 42.32 12.424 0 .696.577 8.008.577 8.008.186 2.584-1.805 4.698-4.427 4.698h-99.428c-2.619 0-4.61-2.115-4.423-4.699z" style="fill:#333" transform="translate(-87.073 -84.154)"/><g style="fill:#999"><path d="M29.054 80.735c-6.047-6.825-8.811-12.993-8.813-18.822.009-6.179 3.074-10.987 6.189-14.888 3.165-3.917 6.555-7.286 8.485-10.459 1.301-2.12 1.97-3.99 1.973-6.027.014-3.009-1.551-7.313-7.688-13.601a4.19 4.19 0 0 1 .13-6.006c1.729-1.623 4.472-1.568 6.131.125 6.912 7.057 10.085 13.385 10.099 19.482-.019 6.057-3.115 10.728-6.209 14.56-3.148 3.855-6.512 7.22-8.444 10.473-1.302 2.172-1.991 4.139-1.997 6.342 0 3.071 1.417 7.267 6.698 13.266a4.193 4.193 0 0 1-.438 5.992 4.38 4.38 0 0 1-2.836 1.033 4.36 4.36 0 0 1-3.28-1.47" style="fill:#999" transform="matrix(-1 0 0 1 222.022 0)"/><path d="M8.813 80.735C2.767 73.91.003 67.742 0 61.913c.008-6.179 3.073-10.987 6.189-14.888 3.166-3.917 6.555-7.286 8.483-10.459 1.304-2.12 1.972-3.99 1.974-6.027.015-3.009-1.55-7.313-7.687-13.601a4.19 4.19 0 0 1 .131-6.006c1.728-1.623 4.471-1.568 6.131.125 6.909 7.057 10.084 13.385 10.098 19.482-.021 6.057-3.116 10.728-6.209 14.56-3.149 3.855-6.513 7.22-8.444 10.473-1.303 2.172-1.991 4.139-1.999 6.342 0 3.071 1.419 7.267 6.7 13.266a4.193 4.193 0 0 1-.438 5.992 4.37 4.37 0 0 1-2.835 1.033 4.36 4.36 0 0 1-3.281-1.47" style="fill:#999" transform="matrix(-1 0 0 1 222.022 0)"/></g><path d="M235.81 165.224c-.613 1.274-.74 2.718-1.579 3.869-.099-.018-.27-.078-.359-.107.067-1.332.378-2.683.18-4.032-.24-.79-.458-1.86-1.48-1.938-1.933-.5-3.82.53-5.46 1.412-1.986 1.041-3.688 2.488-5.495 3.76-1.802 1.491-6.132 2.523-24.436 25.98-6.774 8.637-12.61 17.913-13.124 18.16-4.45 9.042-19.297 12.82-21.53 15.152-.502.281.442 1.168.335 1.377 1.487 1.094 13.197 8.06 14.413 6.807-.361 1.927-1.322 3.645-1.83 5.53-.902 3.063-3.923 19.413-5.993 27.518-.847 2.815-2.3 5.399-3.628 8.006-1.341 2.486-3.17 4.67-5.043 6.756-2.356 2.512-24.48 21.1-23.749 21.679 6.62 3.333 12.89 2.124 20.038 2.634.896.355 1.902.429 2.718.999 3.81 3.723 5.007 11.011 9.02 14.724.91.448 1.509 1.257 2.154 2.008.63-1.05 1.252-2.1 1.79-3.206.945-2.52 4.61-18.247 5.213-20.646.594-2.343.71-4.763 1.267-7.093.326-1.32.262-2.689.673-3.968.9-2.496 1.828-5.008 3.276-7.252 1.017-1.56 2.022-3.116 3.21-4.559.901-1.088 7.298-9.283 11.96-13.764 2.123-3.432 14.643-14.15 15.572-15.29 2.325 3.841 4.312 4.574 8.076 7.196 1.244 1.084 2.848 1.988 4.536 1.601.66-.23 1.06-.953.984-1.634-4.02-11.352-2.782-21.129-3.708-22.05 2.835-4.193 4.69-8.926 7.022-13.393 12.44-24.779 8.168-48.62 8.112-50.638.01-1.66-.012-3.447-.905-4.909-.247-.926-1.525-1.308-2.231-.686zm-8.46 14.513a2.957 2.957 0 0 1-3.984 1.272 2.957 2.957 0 0 1-1.277-3.983 2.96 2.96 0 1 1 5.26 2.711" style="fill:#fff" transform="translate(-87.073 -84.154)"/><g aria-label="FishPercolator" style="line-height:0%;letter-spacing:-20.5811px;word-spacing:0;fill:#660080"><path d="M1013.888-13.897v-258.667h178.21v57.147h-97.377v52.26h90.233v50.38h-90.233v98.88zm267.93 3.008q-25.19 0-40.98-9.023-15.415-9.023-22.559-24.438-7.143-15.415-7.143-34.59v-123.318h79.33v112.415q0 8.648 4.887 13.535 5.264 4.512 12.407 4.512 7.52 0 15.415-4.512l4.136 52.26q-8.272 6.392-21.43 9.775-13.16 3.384-24.063 3.384m-30.83-212.047q-17.294 0-29.7-10.903-12.408-11.28-12.408-27.446 0-11.279 6.016-19.55 6.015-8.648 15.79-13.535t20.303-4.888q11.655 0 21.054 5.264 9.775 5.263 15.415 13.91 6.015 8.648 6.015 18.8 0 11.278-6.391 19.925-6.016 8.648-15.79 13.535-9.4 4.888-20.303 4.888m147.245 212.047q-16.919 0-34.213-3.384-17.295-3.383-31.206-9.399l10.903-47.372q8.648 4.512 23.686 7.895 15.04 3.008 26.694 3.008 18.799 0 18.799-10.151 0-4.888-6.016-7.144-5.64-2.255-15.039-3.76-9.023-1.88-19.55-4.51-10.527-3.009-19.926-8.648-9.024-6.016-15.04-16.919-5.639-10.903-5.639-28.574 0-29.701 23.31-47.372 23.686-17.67 64.667-17.67 15.791 0 29.326 2.255 13.91 2.256 26.318 9.4l-7.896 45.868q-19.926-8.271-41.732-8.271-13.911 0-20.303 2.255-6.015 2.256-6.015 7.52 0 4.136 6.015 6.391 6.016 2.256 15.415 4.512 9.775 1.88 20.302 5.64 10.528 3.383 19.927 9.775 9.775 6.391 15.79 17.294 6.016 10.528 6.016 27.446 0 30.078-22.182 46.996-22.182 16.92-62.411 16.92m102.127-3.008V-261.66l79.33-11.655v109.783q7.895-19.55 24.814-30.453t40.605-10.903q36.845 0 57.147 25.566 20.303 25.19 20.303 71.434v93.992h-79.33v-98.128q0-33.461-27.07-33.461-16.166 0-26.318 12.03-10.15 11.656-10.15 31.582v87.977z" style="font-weight:700;font-size:375.97px;line-height:84%;font-family:&quot;Paytone One&quot;;-inkscape-font-specification:&quot;Paytone One Bold&quot;;text-align:center;letter-spacing:-8.78343px;text-anchor:middle;fill:#333" transform="matrix(.45879 0 0 .45879 -188.784 248.458)"/><path d="M1751.373-13.897V-272.94h87.6q63.915 0 96.249 21.054 32.71 20.679 32.71 61.283 0 28.198-14.288 48.125-13.91 19.55-39.476 30.077-25.566 10.151-60.156 10.151h-19.55v88.353zm99.256-140.612q19.926 0 30.83-8.272 10.902-8.271 10.902-24.814 0-15.415-10.527-22.934-10.527-7.895-30.453-7.895h-16.92v63.915zm244.996 90.984q10.903 0 22.934-2.256 12.407-2.255 25.19-8.27l9.023 48.5q-13.91 7.143-30.453 10.902-16.167 3.76-37.221 3.76-37.973 0-63.915-12.407-25.566-12.407-38.725-34.213t-13.16-50.38q0-29.326 13.912-51.132 14.287-21.806 37.973-33.837t52.26-12.031q42.484 0 65.042 26.693 22.559 26.318 22.559 75.194l-112.04 14.287q12.408 25.19 46.62 25.19m-52.636-59.779 59.027-12.407q-1.504-12.031-8.271-17.67-6.767-6.016-16.919-6.016-15.038 0-24.062 10.527-8.647 10.151-9.775 25.566m135.59 109.407v-188.36h78.2v46.996q7.52-25.566 23.311-37.597 16.167-12.031 38.349-12.031l9.4 66.546q-9.024-1.128-17.671-1.128-52.26 0-52.26 42.86v82.714zm246.5 3.008q-31.582 0-54.516-12.407t-35.341-33.837q-12.407-21.806-12.407-50.004 0-27.822 12.783-50.004t35.717-34.965q23.31-12.783 53.764-12.783 36.469 0 57.523 15.038l-8.271 51.132q-9.4-4.135-17.67-5.64-8.272-1.88-15.792-1.88-18.422 0-29.325 10.528-10.527 10.151-10.527 27.822 0 17.294 10.527 28.198 10.527 10.527 27.822 10.527 15.038 0 35.34-6.392l7.144 52.636q-12.407 6.016-25.942 9.023-13.159 3.008-30.83 3.008m173.562 0q-31.958 0-56.396-12.407t-38.349-34.213q-13.535-22.182-13.535-50.756 0-29.326 13.911-50.756 14.287-21.806 38.725-33.837t56.02-12.031q32.333 0 56.771 12.407 24.438 12.03 37.973 33.837 13.535 21.43 13.535 50.38t-13.91 51.132q-13.536 21.806-37.974 34.213-24.438 12.031-56.771 12.031m.752-56.395q15.415 0 25.19-11.28 10.15-11.655 10.15-29.701 0-18.047-9.774-29.326-9.775-11.655-24.814-11.655-16.167 0-26.318 11.655-9.775 11.28-9.775 29.326t9.775 29.702q10.15 11.279 25.566 11.279m201.384 56.395q-26.694 0-43.613-9.023-16.542-9.023-24.062-24.438t-7.52-34.59v-190.24l79.33-11.655v190.992q0 8.648 5.64 13.535 5.64 4.512 14.663 4.512t18.046-4.512l5.64 52.26q-9.023 6.392-22.934 9.775t-25.19 3.384m139.349 0q-25.942 0-46.996-12.407-21.055-12.783-33.462-34.965-12.03-22.182-12.03-50.756t12.03-50.004q12.407-21.43 33.462-33.461 21.054-12.407 46.996-12.407 18.422 0 35.717 10.15 17.295 10.152 26.694 33.462v-40.98h78.202v188.36h-78.954v-34.965q-9.023 18.423-24.062 28.198t-37.597 9.775m24.438-59.403q15.415 0 26.318-10.903 10.903-11.28 10.903-27.446t-10.903-26.318q-10.903-10.527-26.318-10.527-16.167 0-27.07 10.903t-10.903 26.694 10.903 26.694 27.07 10.903M3190.01-10.89q-26.694 0-43.613-9.023-16.542-9.023-24.062-24.438t-7.52-34.59v-76.697h-24.061v-46.62h29.701l34.966-59.404h38.724v59.403h43.613v46.62h-43.613v65.795q0 8.648 5.64 13.535 5.64 4.512 14.663 4.512t18.046-4.512l5.64 52.26q-9.023 6.392-22.934 9.775t-25.19 3.384m161.53 0q-31.957 0-56.395-12.407t-38.349-34.213q-13.535-22.182-13.535-50.756 0-29.326 13.911-50.756 14.287-21.806 38.725-33.837t56.02-12.031q32.333 0 56.77 12.407 24.439 12.03 37.974 33.837 13.535 21.43 13.535 50.38t-13.911 51.132q-13.535 21.806-37.973 34.213-24.438 12.031-56.772 12.031m.752-56.395q15.415 0 25.19-11.28 10.152-11.655 10.152-29.701 0-18.047-9.776-29.326-9.775-11.655-24.814-11.655-16.166 0-26.318 11.655-9.775 11.28-9.775 29.326t9.775 29.702q10.152 11.279 25.566 11.279m127.318 53.387v-188.36h78.202v46.996q7.52-25.566 23.31-37.597 16.167-12.031 38.35-12.031l9.398 66.546q-9.023-1.128-17.67-1.128-52.26 0-52.26 42.86v82.714z" style="font-weight:700;font-size:375.97px;line-height:84%;font-family:&quot;Paytone One&quot;;-inkscape-font-specification:&quot;Paytone One Bold&quot;;text-align:center;letter-spacing:-8.78343px;text-anchor:middle" transform="matrix(.45879 0 0 .45879 -188.784 248.458)"/></g></svg>